<?xml version="1.0" encoding="UTF-8" standalone="no"?>
<svg
   width="340"
   height="320"
   viewBox="0 0 340 320"
   xmlns="http://www.w3.org/2000/svg">
  <title>Beyondelta mark — dark field (field-colored haze, gold arc)</title>
  <defs>
    <filter id="db0" x="-150%" y="-150%" width="400%" height="400%"><feGaussianBlur stdDeviation="16.0"/></filter>
    <filter id="db1" x="-150%" y="-150%" width="400%" height="400%"><feGaussianBlur stdDeviation="14.0"/></filter>
    <filter id="db2" x="-150%" y="-150%" width="400%" height="400%"><feGaussianBlur stdDeviation="12.0"/></filter>
    <filter id="db3" x="-150%" y="-150%" width="400%" height="400%"><feGaussianBlur stdDeviation="10.0"/></filter>
    <filter id="db4" x="-150%" y="-150%" width="400%" height="400%"><feGaussianBlur stdDeviation="8.0"/></filter>
    <filter id="db5" x="-150%" y="-150%" width="400%" height="400%"><feGaussianBlur stdDeviation="6.0"/></filter>
    <filter id="db6" x="-150%" y="-150%" width="400%" height="400%"><feGaussianBlur stdDeviation="4.0"/></filter>
    <filter id="db7" x="-150%" y="-150%" width="400%" height="400%"><feGaussianBlur stdDeviation="2.0"/></filter>
    <mask id="darkRingCutout" maskUnits="userSpaceOnUse" x="0" y="0" width="340" height="320">
      <rect x="0" y="0" width="340" height="320" fill="#FFFFFF"/>
      <circle cx="170" cy="196" r="14" fill="#000000"/>
    </mask>
  </defs>
  <g mask="url(#darkRingCutout)">
    <path d="M 170.0 50.0 L 296.0 270.0 L 44.0 270.0 Z" fill="#F5F5F0" opacity="0.45" filter="url(#db0)"/>
    <path d="M 170.0 85.8 L 265.1 251.9 L 74.9 251.9 Z" fill="#F5F5F0" opacity="0.52" filter="url(#db1)"/>
    <path d="M 170.0 112.7 L 241.8 238.2 L 98.2 238.2 Z" fill="#F5F5F0" opacity="0.59" filter="url(#db2)"/>
    <path d="M 170.0 133.1 L 224.3 227.9 L 115.7 227.9 Z" fill="#F5F5F0" opacity="0.66" filter="url(#db3)"/>
    <path d="M 170.0 148.5 L 211.0 220.1 L 129.0 220.1 Z" fill="#F5F5F0" opacity="0.74" filter="url(#db4)"/>
    <path d="M 170.0 160.2 L 200.9 214.2 L 139.1 214.2 Z" fill="#F5F5F0" opacity="0.81" filter="url(#db5)"/>
    <path d="M 170.0 168.9 L 193.4 209.7 L 146.6 209.7 Z" fill="#F5F5F0" opacity="0.88" filter="url(#db6)"/>
    <path d="M 170.0 175.6 L 187.6 206.4 L 152.4 206.4 Z" fill="#F5F5F0" opacity="0.95" filter="url(#db7)"/>
  </g>
  <path d="M 182.69,190.08 A 14,14 0 1,1 179.00,185.28" fill="none" stroke="#F5F5F0" stroke-width="2.2"/>
  <path d="M 179.00,185.28 A 14,14 0 0,1 182.69,190.08" fill="none" stroke="#ECCA4F" stroke-width="2.2"/>
</svg>
